HIERARCHY
ROOT Hips
{
	OFFSET -246.377396 91.733124 -540.268188
	CHANNELS 6 Xposition Yposition Zposition Zrotation Yrotation Xrotation 
	JOINT LeftUpLeg
	{
		OFFSET 0.103454 1.857841 10.548504
		CHANNELS 3 Zrotation Yrotation Xrotation
		JOINT LeftLeg
		{
			OFFSET 43.499992 -0.000061 0.000000
			CHANNELS 3 Zrotation Yrotation Xrotation
			JOINT LeftFoot
			{
				OFFSET 42.372196 0.000008 -0.000002
				CHANNELS 3 Zrotation Yrotation Xrotation
				JOINT LeftToe
				{
					OFFSET 17.300022 0.000011 0.000012
					CHANNELS 3 Zrotation Yrotation Xrotation
					End Site
					{
						OFFSET 0.000000 0.000000 0.000000
					}
				}
			}
		}
	}
	JOINT RightUpLeg
	{
		OFFSET 0.103458 1.857820 -10.548491
		CHANNELS 3 Zrotation Yrotation Xrotation
		JOINT RightLeg
		{
			OFFSET 43.500046 0.000015 0.000006
			CHANNELS 3 Zrotation Yrotation Xrotation
			JOINT RightFoot
			{
				OFFSET 42.372269 -0.000046 0.000017
				CHANNELS 3 Zrotation Yrotation Xrotation
				JOINT RightToe
				{
					OFFSET 17.300032 0.000011 0.000015
					CHANNELS 3 Zrotation Yrotation Xrotation
					End Site
					{
						OFFSET 0.000000 0.000000 0.000000
					}
				}
			}
		}
	}
	JOINT Spine
	{
		OFFSET 6.901962 -2.603707 -0.000004
		CHANNELS 3 Zrotation Yrotation Xrotation
		JOINT Spine1
		{
			OFFSET 12.588104 -0.000004 -0.000001
			CHANNELS 3 Zrotation Yrotation Xrotation
			JOINT Spine2
			{
				OFFSET 12.343199 -0.000026 0.000003
				CHANNELS 3 Zrotation Yrotation Xrotation
				JOINT Neck
				{
					OFFSET 25.832890 0.000004 -0.000006
					CHANNELS 3 Zrotation Yrotation Xrotation
					JOINT Head
					{
						OFFSET 11.766623 0.000031 0.000004
						CHANNELS 3 Zrotation Yrotation Xrotation
						End Site
						{
							OFFSET 0.000000 0.000000 0.000000
						}
					}
				}
				JOINT LeftShoulder
				{
					OFFSET 19.745897 -1.480345 6.000100
					CHANNELS 3 Zrotation Yrotation Xrotation
					JOINT LeftArm
					{
						OFFSET 11.284126 0.000003 -0.000015
						CHANNELS 3 Zrotation Yrotation Xrotation
						JOINT LeftForeArm
						{
							OFFSET 33.000057 -0.000023 0.000027
							CHANNELS 3 Zrotation Yrotation Xrotation
							JOINT LeftHand
							{
								OFFSET 25.199987 0.000051 0.000021
								CHANNELS 3 Zrotation Yrotation Xrotation
								End Site
								{
									OFFSET 0.000000 0.000000 0.000000
								}
							}
						}
					}
				}
				JOINT RightShoulder
				{
					OFFSET 19.746086 -1.480362 -6.000076
					CHANNELS 3 Zrotation Yrotation Xrotation
					JOINT RightArm
					{
						OFFSET 11.284140 0.000004 -0.000015
						CHANNELS 3 Zrotation Yrotation Xrotation
						JOINT RightForeArm
						{
							OFFSET 33.000084 -0.000023 0.000011
							CHANNELS 3 Zrotation Yrotation Xrotation
							JOINT RightHand
							{
								OFFSET 25.199789 0.000148 0.000422
								CHANNELS 3 Zrotation Yrotation Xrotation
								End Site
								{
									OFFSET 0.000000 0.000000 0.000000
								}
							}
						}
					}
				}
			}
		}
	}
}
MOTION
Frames: 11
Frame Time: 0.033333
134.835205 91.138786 -542.139282 92.167556 -0.973532 156.564205 171.667202 3.416599 175.692328 -20.090890 -1.522500 -7.902033 75.675511 5.828961 0.689835 21.454553 0.003093 -0.000000 170.883793 9.147998 -168.339287 -22.657127 1.506306 6.587235 77.520892 -3.364808 5.181166 21.454557 -0.003103 -0.000016 9.802454 0.725064 1.871198 9.614139 1.292087 3.796348 9.296712 1.315109 3.788502 -3.753501 -1.645004 -2.869441 -20.376563 7.093723 -6.128335 -167.147187 -78.422927 -14.619923 6.768340 69.379033 -10.832626 -110.060903 -1.594695 3.302006 -3.316316 3.694913 82.530685 -166.868106 77.677679 14.865816 -2.840287 -60.869471 25.773890 -97.257140 1.575119 -2.781888 3.442939 8.461734 -56.600125 
135.149094 91.227463 -541.642029 92.205887 -1.035638 156.931273 172.615013 1.876201 175.655144 -19.071592 -4.217383 -7.285570 75.623178 5.785980 1.859949 21.454550 0.003090 0.000000 171.444838 8.992900 -167.029326 -22.420540 1.097905 6.159184 77.753275 -3.089993 5.067656 21.454557 -0.003105 -0.000016 9.700008 0.465595 1.806877 9.399898 0.782836 3.645614 9.082481 0.804956 3.640837 -3.953180 -2.497963 -2.826378 -20.527724 7.844769 -6.583364 -166.809735 -78.752006 -14.962272 5.835892 69.135339 -9.929890 -109.920399 -1.672575 3.301379 -4.341371 7.557163 80.991386 -165.517723 77.119809 16.245537 -0.603513 -62.726333 21.989543 -97.559874 1.491747 -2.789624 3.038137 8.302455 -56.493396 
135.482697 91.357368 -541.218811 91.911144 -1.039812 157.652282 173.046258 1.328006 174.262182 -18.357436 -4.301741 -5.949116 75.357948 4.978667 2.287239 21.454550 0.003092 0.000000 172.193454 8.923996 -165.975591 -21.512033 1.447826 6.021344 77.736855 -3.077559 4.773258 21.454557 -0.003114 -0.000018 9.524962 0.294425 1.670264 9.043869 0.457416 3.358393 8.726343 0.477819 3.355580 -4.239416 -3.639621 -2.764743 -20.418186 8.303654 -6.948795 -167.190313 -78.637293 -14.575298 6.321757 68.152317 -6.461038 -110.268999 -1.695343 3.317974 -5.215874 7.478671 81.033508 -163.442028 76.745856 18.366389 2.248467 -64.400788 17.110874 -98.080273 1.382281 -2.805282 2.779911 8.362911 -55.951335 
135.924103 91.503387 -540.818481 91.961011 -1.009390 158.279908 173.828492 1.984606 175.153576 -17.343811 -3.025591 -6.198930 74.879535 4.902614 1.456770 21.454553 0.003093 -0.000000 173.342251 8.858705 -165.569373 -20.467558 1.820684 6.200889 77.684659 -3.246471 4.653243 21.454557 -0.003109 -0.000016 9.432121 0.112980 1.518425 8.852846 0.109490 3.040986 8.535253 0.127978 3.040275 -4.383650 -4.692384 -2.642438 -20.202322 8.510019 -7.121054 -166.991623 -78.234107 -14.778999 6.798607 67.805460 -3.072610 -110.223995 -1.782061 3.322078 -7.134558 5.928937 81.958677 -162.315416 76.563006 19.518239 5.140525 -65.614854 12.450010 -98.578331 1.228981 -2.816880 2.928672 8.169109 -55.554631 
136.434601 91.626549 -540.372925 92.274695 -0.794057 158.336667 175.230771 1.979005 175.362962 -16.061933 -2.717030 -6.258852 74.518621 4.854969 1.140425 21.454555 0.003091 0.000000 174.628102 8.420197 -166.428119 -19.432563 2.005576 6.821856 77.600013 -3.660176 4.776078 21.454560 -0.003106 -0.000017 9.414910 -0.098639 1.500741 8.812971 -0.311256 2.989574 8.495338 -0.293065 2.991402 -4.156717 -5.205346 -2.673479 -20.142038 8.634448 -7.299322 -166.937883 -77.989989 -14.834563 7.862405 68.644835 -0.279188 -110.185602 -1.823609 3.323325 -7.760098 4.745831 82.140046 -161.723594 76.329830 20.125234 7.445952 -66.418139 8.675599 -98.927135 1.184994 -2.829415 3.249932 7.709906 -56.275704 
136.926605 91.687363 -539.897583 92.436338 -0.640658 158.186703 176.379240 1.769603 175.867249 -15.005809 -2.841885 -6.583467 74.361847 5.014976 0.888036 21.454551 0.003091 0.000000 175.330013 7.814408 -166.821578 -19.057997 1.523224 7.083876 77.756861 -3.773002 5.056326 21.454560 -0.003105 -0.000017 9.358599 -0.340047 1.524764 8.694102 -0.793636 3.019701 8.376471 -0.775260 3.024442 -3.880614 -5.300664 -2.697547 -20.117759 8.806200 -7.398674 -166.926080 -77.777481 -14.847312 9.456326 69.776871 2.335851 -110.241992 -1.813254 3.326472 -6.545395 3.350167 82.693032 -161.721299 76.132376 20.129930 9.490864 -67.138301 5.638058 -99.144806 1.133971 -2.835589 3.475980 7.468067 -57.557403 
137.384598 91.690117 -539.410706 92.573597 -0.492617 158.042122 177.233273 1.561004 176.237459 -14.460182 -2.846829 -6.832984 74.423271 5.095330 0.567942 21.454558 0.003093 -0.000000 175.803305 7.353608 -166.507513 -19.138774 1.024034 6.916742 78.099436 -3.630924 5.164732 21.454558 -0.003111 -0.000018 9.316229 -0.585907 1.537480 8.603159 -1.284430 3.027317 8.285469 -1.265997 3.035015 -3.820424 -5.328414 -2.743748 -19.975097 9.024173 -7.522090 -166.084328 -77.512108 -15.706578 10.561693 70.718228 4.432354 -110.291600 -1.857227 3.330243 -5.478844 2.276406 84.815705 -162.175383 76.102910 19.666336 11.248557 -67.862157 3.288019 -99.373788 1.075995 -2.841788 3.506706 7.202411 -58.357560 
137.865204 91.618927 -538.915222 92.858587 -0.375012 158.008299 177.895514 1.266299 176.930914 -14.572562 -3.215066 -7.180956 74.795926 5.267818 0.321609 21.454550 0.003091 -0.000000 176.192530 7.217108 -165.126913 -19.827267 0.500916 6.165456 78.739104 -3.128801 5.090023 21.454558 -0.003113 -0.000019 9.316134 -0.839557 1.544564 8.596818 -1.791459 3.022855 8.279035 -1.773043 3.033614 -3.850676 -5.521263 -2.840006 -19.863230 9.285089 -7.755506 -165.332324 -77.329722 -16.474425 10.839333 71.169670 5.800494 -110.289503 -1.893849 3.332695 -4.717651 1.034324 86.716710 -161.905017 76.218040 19.941272 12.677946 -68.619933 1.297724 -99.637652 1.021792 -2.849804 3.297275 6.969420 -58.866218 
138.423996 91.510620 -538.432800 93.305923 -0.305389 158.077516 178.458964 0.962495 176.368284 -15.301615 -3.490884 -6.721277 75.414618 4.927424 0.281674 21.454550 0.003091 -0.000000 176.675465 7.395203 -164.613501 -20.794330 0.540278 5.897966 79.500786 -2.978907 5.035524 21.454555 -0.003115 -0.000019 9.326337 -1.107892 1.540041 8.611167 -2.327217 2.993970 8.293250 -2.308964 3.007965 -3.679286 -5.784909 -2.861521 -19.848714 9.646928 -7.967530 -165.535932 -77.336401 -16.266678 10.921106 71.089572 6.555709 -110.340401 -1.850474 3.331858 -3.489759 -0.014072 87.875861 -161.800802 76.274218 20.047020 13.989289 -69.117669 -0.318123 -100.152000 0.892592 -2.863781 3.637244 6.157365 -59.783614 
138.988495 91.383240 -537.943176 93.677820 -0.259849 158.295412 178.679115 0.764008 175.736068 -16.531815 -3.431250 -6.152790 76.138646 4.468956 0.115765 21.454551 0.003092 -0.000000 177.023491 7.502001 -164.745843 -21.895281 0.660672 6.081053 80.237135 -3.103052 5.171997 21.454560 -0.003105 -0.000016 9.286251 -1.356099 1.495951 8.526642 -2.818626 2.888788 8.208569 -2.800998 2.905755 -3.436322 -6.021202 -2.836406 -19.698308 9.865153 -8.050165 -165.748583 -77.574488 -16.048496 11.161382 70.786831 7.182387 -110.692990 -1.855216 3.347339 -1.368742 -0.596814 88.270537 -161.792838 76.463312 20.052991 14.955935 -69.552581 -1.084394 -100.841289 0.772013 -2.886153 5.446565 4.078361 -60.923983 
139.534195 91.262787 -537.448486 93.981873 -0.187037 158.575382 178.794504 0.600999 175.927614 -17.767171 -3.381481 -6.037788 76.810245 4.292291 -0.200810 21.454555 0.003094 -0.000000 177.236770 7.295499 -165.454448 -23.002829 0.510118 6.679944 80.786187 -3.443283 5.602195 21.454557 -0.003109 -0.000018 9.220688 -1.571152 1.432574 8.392934 -3.241937 2.748528 8.074707 -3.225156 2.768065 -3.425973 -6.461960 -2.774371 -19.372899 10.285262 -8.208322 -165.609001 -77.740209 -16.189889 11.190210 70.330376 7.106424 -111.311695 -1.796018 3.369736 1.520418 -0.450979 89.049698 -161.143820 76.743712 20.712069 15.302253 -69.923276 -1.085133 -101.800896 0.563162 -2.914387 9.022580 1.005045 -62.019299 
